/* XPM */
static const char *TrueCryptIcon48x48[] = {
/* width height ncolors chars_per_pixel */
"48 48 196 2",
/* colors */
"   c #000000",
" . c #00206D",
" X c #6190F7",
" o c #073998",
" O c #1F66EB",
" + c #1A5DDC",
" @ c #1F68EE",
" # c #001A5C",
" $ c #1656CE",
" % c #99B6FC",
" & c #7B9FF9",
" * c #1E61E3",
" = c #05348F",
" - c #D2E0FF",
" ; c #ADC4FF",
" : c #EDF3FF",
" > c #8EADFB",
" , c #C8D7FF",
" < c #A3BDFF",
" 1 c #073B9E",
" 2 c #001A5F",
" 3 c #BED0FF",
" 4 c #96B4FC",
" 5 c #F4F8FF",
" 6 c #1451C5",
" 7 c #114FC2",
" 8 c #6D96F8",
" 9 c #1A5CD8",
" 0 c #C5D5FF",
" q c #002D83",
" w c #185AD6",
" e c #1F65EA",
" r c #053695",
" t c #F1F6FF",
" y c #4D83F6",
" u c #001E65",
" i c #104CBA",
" p c #C2D3FF",
" a c #5F8FF7",
" s c #073A9A",
" d c #0B43AB",
" f c #EEF4FF",
" g c #4A81F6",
" h c #E4EDFF",
" j c #2069F1",
" k c #0D45B0",
" l c #002775",
" z c #1E62E5",
" x c #0A3EA3",
" c c #1A5BD7",
" v c #001B61",
" b c #3B78F4",
" n c #1E64E8",
" m c #D7E4FF",
" M c #B2C8FF",
" N c #1452C7",
" B c #023087",
" V c #89AAFB",
" C c #001B64",
" Z c #00185A",
" A c #5689F7",
" S c #729AF8",
" D c #90AFFB",
" F c #02308A",
" G c #114DBD",
" H c #E5EEFF",
" J c #86A8FB",
" K c #073B9C",
" L c #1858D1",
" P c #00297E",
" I c #5D8EF7",
" U c #799FF8",
" Y c #3574F4",
" T c #002474",
" R c #0B44AD",
" E c #5387F7",
" W c #1451C3",
" Q c #6F98F8",
" ! c #001F6A",
" ~ c #C7D7FF",
" ^ c #206AF3",
" / c #81A4F9",
" ( c #1048B5",
" ) c #95B2FC",
" _ c #F3F8FF",
" ` c #4F83F6",
" ' c #CEDCFF",
" ] c #0B41A6",
" [ c #276DF3",
" { c #E9F1FF",
" } c #8AABFB",
" | c #C4D5FF",
".  c #437CF4",
".. c #DFE8FF",
".X c #9CB7FC",
".o c #3977F4",
".O c #053696",
".+ c #91B0FB",
".@ c #B0C5FF",
".# c #00104F",
".$ c #246BF3",
".% c #2069EF",
".& c #407CF4",
".* c #1857D0",
".= c #F7FBFF",
".- c #D2DFFF",
".; c #1B60E0",
".: c #7099F8",
".> c #114EBF",
"., c #0A3EA1",
".< c #002C80",
".1 c #5B8BF7",
".2 c #779EF8",
".3 c #0A40A4",
".4 c #8BACFB",
".5 c #0D47B4",
".6 c #1E64E9",
".7 c #588BF7",
".8 c #001658",
".9 c #1654CA",
".0 c #1452C8",
".q c #749CF8",
".w c #F1F7FF",
".e c #1B5FDC",
".r c #6A95F8",
".t c #A7BFFF",
".y c #002E86",
".u c #114DBB",
".i c #1F66ED",
".p c #00297C",
".a c #9AB6FC",
".s c #1654CD",
".d c #F8FCFF",
".f c #002472",
".g c #001151",
".h c #1B5FDF",
".j c #02328B",
".k c #001F68",
".l c #4880F4",
".z c #6693F7",
".x c #1858D2",
".c c #3E7BF4",
".v c #FFFFFF",
".b c #DAE5FF",
".n c #D0DEFF",
".m c #02328E",
".M c #296FF3",
".N c #EBF3FF",
".B c #ABC2FF",
".V c #457EF4",
".C c #002D82",
".Z c #185AD5",
".A c #82A6FB",
".S c #A1BBFF",
".D c #E1EAFF",
".F c #104AB6",
".G c #9EB9FC",
".H c #FCFFFF",
".J c #002878",
".K c #1653C9",
".L c #3072F3",
".P c #00236E",
".I c #0B41A7",
".U c #00104D",
".Y c #A8C0FF",
".T c #1A5CDA",
".R c #E8EFFF",
".E c #104AB9",
".W c #DEE8FF",
".Q c #00287B",
".! c #F9FFFF",
".~ c #B9CCFF",
".^ c #0B43AA",
"./ c #AFC5FF",
".( c #2D70F3",
".) c #CADAFF",
"._ c #6894F8",
".` c #0A3C9F",
".' c #0D45AF",
".] c #F6FBFF",
".[ c #B6CAFF",
".{ c #1E62E4",
".} c #053590",
".| c #001453",
"X  c #5286F6",
"X. c #1B60E1",
"XX c #114EC0",
"Xo c #83A7FB",
"XO c #6490F7",
"X+ c #9FBAFC",
"X@ c #0D47B2",
"X# c #D8E4FF",
"X$ c #001656",
"X% c #053593",
"X& c #3273F4",
"X* c None",
/* pixels */
"X*X*X*X*X* (.5 iX@.F (.F.F.'.'X@.'.I d kX@ i.E (X@.5.E.5.E i.E dX@.E k x.^ R ( ( (.E iX*X*X*X*X*",
"X*X*X*X*X*.I.u.0 R kX@.'.F G.F.E G i.F k.5 G.u iX@ ( W.0 N NXX.> 6 G.>.u i W.>.F G 7 7X*X*X*X*X*",
"X*X*X*X*X*.3.u w 7 i 7 N $.0 G 6 N N.K N.0.K.* 6.5 k (.K.0 7 6.0 6 $ G GXX G.> (.5 (.uX*X*X*X*X*",
"X*X*X*X*X*.I.>.Z.0 G N.0.'.I 6 7XX.Z.*.0.> i.s NX@.u.0 6 7 iX@.u.s.E.5 (.> i 7X@ 1.I.'X*X*X*X*X*",
"X*X*X*X*X*.`.E 9.s W W.F.F.u.u W N 7 6.s N G W 6XX.EXX.9 W.u (.5 i.FX@ i iX@ i.' s 1.'X*X*X*X*X*",
"X*X*X*X*X* 1.u.Z.> N.5.y BX% r R c g Y.L L w.V.L.L L.h g.c ^ 6 1.` ].} R.s.9.0 ( o s.3X*X*X*X*X*",
"X*X*X*X*X* ].> cXX.F.' q.F.i.e w.4.- H.t [ J.n.R.Y.o.aX#.D.X e.9 ^.M.>.;.K 7.0.F.O o RX*X*X*X*X*",
"X*X*X*X*X* 1.>.Z W.s.u x [.(.&.6.[.v.v t `.@.v.v _ X.).v.v.R ^ @.lX X. e.0 WXX.E., K.3X*X*X*X*X*",
"X*X*X*X*X* ] G c N W.F 1 e.&.M c.a.d.v m.c ).=.v.b.l./.H.v.).% z `.7.s.%.s N N.5 o.`.IX*X*X*X*X*",
"X*X*X*X*X*.`.F 9.*.ZXX 1.F.* 6.9.L 8 U.1 9.M.r U I.T b.:.q `.9 i w.; k.6XX.E 6 ( o.,.^X*X*X*X*X*",
"X*X*X*X*X*.^.0 c G 7 7 W @ ^ Y w.s 9.h.K k 6.*.;.K.E.0 +.h N 7.6 A.c.(.{ W 6 7 d o x dX*X*X*X*X*",
"X*X*X*X*X*.I 7 9.> N 6.V M.D.~ A.F.{.l.6 kX@.M `.6 k.E [ `.{.T D H 5.[.$.* + $.F 1.,.'X*X*X*X*X*",
"X*X*X*X*X*.^ WX..9 N.> S.d.v.v 4XX.l y E k.0 E g. .^ c.7 E.L ^ 3.v.v f.c.T.h $.u K s.^X*X*X*X*X*",
"X*X*X*X*X*.I W.e.xXX iXO {.v.].A.>.L.V j r k @ g n.3 7.&.7.e z.+ _.! 3 [.s.0.*XX., s.3X*X*X*X*X*",
"X*X*X*X*X* d G.9 i.> i z.z.4.2 ^X@.> L.F.} F (.s.F (.>.TX..K $.MXO._ [.T.9.Z.Z.u 1., dX*X*X*X*X*",
"X*X*X*X*X*.I 7 c.F N W 7 + +.* 6.i S.rX  w 6 [ y O.s.6 Q.r.7.e.K + 9 i.x G.>.>X@ r s.^X*X*X*X*X*",
"X*X*X*X*X*.^.> c 7 NXXX@.$ y.6XX < f.H ,.&.aX#.D.X @ %.N.H '.l + `.7 cXX i k.> kX%.` RX*X*X*X*X*",
"X*X*X*X*X*.I i c.K N W.9 `.1X X..[.v.v.w g.).v.v.R.o ;.v.v.].1.6.7.7.i.K L.9.9.F.O K ]X*X*X*X*X*",
"X*X*X*X*X*.^ 7 9XX.>.9 7.  A.(.0.A h _ p.$./.H.v.) Y.2.W 5 ,.L.*.(.&.K W 6 GXX.F.O K.IX*X*X*X*X*",
"X*X*X*X*X*.` G L.> W 6 x.>.9 ( ( O.&.& [.* b.:.q ` +.6.c. .( NX@X@.^ =.>.K N.0X@ o K ]X*X*X*X*X*",
"X*X*X*X*X*.3 G w W.> iX%.`.' x.O.F L.T.s $.h b 8.V *.0 * nXX ( ] G.u r.u.s 6.K (X%X%.IX*X*X*X*X*",
"X*X*X*X*X* ] 6.T 7 k.5 s +.M e.3.3.i.( O c S.. tX#.7 * a.7 @ xXX.  Y W.^.0.K N.F.O K.3X*X*X*X*X*",
"X*X*X*X*X*.^.>.Z N i ( K j.c.& dX@.(.o g.h }.v.v.d S O.7X .&.}.K.V `.{.^ N N.0 k.} r.3X*X*X*X*X*",
"X*X*X*X*X*.^ 7 c N 7 R q.K j.{.` K.h.M.{.s A | H.[ Y 7.(.o.KX% k j.( (., 7XX.0 R F.} xX*X*X*X*X*",
"X*X*X*X*X*.'.9.Z G.*XX.y.y s r q.J B.O o.K.T.(.c.$.s k.5.I B P.J.}.} l.' G.u NX@.jX% xX*X*X*X*X*",
"X*X*X*X*X*.F.*.x W.9 G.m o.u.5.y P.3 $X@ 6 @ U.q.1 9.' 7.x.,.<.yX@.0.O.3 W W.K.'.y.} ]X*X*X*X*X*",
"X*X*X*X*X* d.F 6.u 7.E K.;.M.M.3 1.L E ^.9.S _.v -.c.K y g n.m.> Y.L N.^ W.> 7 dX%.O 1X*X*X*X*X*",
"X*X*X*X*X* ( 7.s.E.>.FX% O.$.c.' k b `.L w M.v.v _ y $X  yX& r.*.&.l z d W G.>.^ r s.,X*X*X*X*X*",
"X*X*X*X*X*X@.s w G.> k.y.> O.T.O o.;.$ L 7.2X# : 3 O.E n.M 6 P o.e e k k NXX.>.'X% K ]X*X*X*X*X*",
"X*X*X*X*X*X@.0 $ i 6XX B.C.}.}.C.J.< B.y d n Y Y j 6X%.jX% P.P T P.y l.'.>.E G R.}X%.,X*X*X*X*X*",
"X*X*X*X*X* R 7 N.I W.u.m x.0 G F.m.>.Z.5.s ^ & JX  * 1XX.T.'.f.C W.Z.,.E.K.K.> d.j.O.3X*X*X*X*X*",
"X*X*X*X*X* R W $ N NX@ o zX&.(.3 (. .VX&.i.G.!.v.N.r $.V y.i.J.>.&.l.h.I N N.u d.j.O.3X*X*X*X*X*",
"X*X*X*X*X*.^ N w.u 6 i s @.o. .' 6 y y y.L.).v.v.vXo $.c ` [.C G.o y e.^.K 7 NX@ r s xX*X*X*X*X*",
"X*X*X*X*X*X@ W.sXX W.'.C.5X..s r 1.;.L L.xXo.D.] 0. ., $X. d l q L.;.`.O.0 NXX k r r.3X*X*X*X*X*",
"X*X*X*X*X*.I.>.> R.0.> F.< = = B R 6.Z.0.0 * b.L j.*.j P F T #.k.Q.p . r i i i.^.m.} xX*X*X*X*X*",
"X*X*X*X*X*.^ 6.s N.K i.m R.x.0.`.L ) ; V @.lX+.Y U.;.O c * G.p P.K + d K 6.9 W kX% o.3X*X*X*X*X*",
"X*X*X*X*X* G N G.E.0.5 s j.c.c L >.!.v _ 8 ;.v.v.R.& W g. .M.j G Y Y e K.0 6.E.'.} r KX*X*X*X*X*",
"X*X*X*X*X*.3 7 $ i W.'X% e. .l w >.v.v.= /.B.v.v f.V.s g g j P.u.LX&X..O 6XXXX R.mX%.,X*X*X*X*X*",
"X*X*X*X*X* ].0 w N N R.y.3 c.>.,. .t.) <.M.7.@ ~ 4.;.O $ + ] . P G $.}.m 6XX G R F r ]X*X*X*X*X*",
"X*X*X*X*X* ].9 w.0 WX@ 1.`.`.O x.Z O O * 6.T.i e.h i.}X% s.} BX%X%.j.j.3 6 7.>.' r s xX*X*X*X*X*",
"X*X*X*X*X*.^ W W ( WXX 7.9.s W k.>.>.F.> N.0.0 WXX.FXX G i.> 7 iX@.E.F G N i.E R.} o.3X*X*X*X*X*",
"X*X*X*X*X*.F.>.> i (.> 7 i G.u i W 6.>.F.5 i 7 G.5 (.5 i i i.E.F.5 i RX@ G.u.F.^.m o dX*X*X*X*X*",
"X*X*X*X*X*.*.s.> G i.u.E (X@.E (.F.E.F.u GXX 7.u.FX@.'X@ ( ( (.E.u k i G.'.u.E R.O.O.3X*X*X*X*X*",
"X*X*X*X*X* (.^ K.m F r =.m = =.}.y F.j = r =X% r r.O.O.m rX%.}.} = = rX%X% r =.O =X%.,X*X*X*X*X*",
"X*X*X*X*X*.5.m.k 2.8 #.8 #.8 Z 2.|.|X$.g.g.#X$.8X$.|.g # ZX$ Z 2X$.|.|X$.U.g.8.P.j o.3X*X*X*X*X*",
"X*X*X*X*X*.' 1 P T.k.P.k u.k ! v v C C C v Z v 2.8 2 #.8 #X$ 2 #.8.8.8 #.8 # C P o.,.IX*X*X*X*X*",
"X*X*X*X*X*.F k d o F.y B q q q.y q q.y.y.y.< q.C q q.C.y q.C.C q P.C q.<.p q B.O 1 x dX*X*X*X*X*",
"X*X*X*X*X*.F.5 (.'.` 1 s.O 1.`.`.` 1 1.,.`.` K K.O o r o K K K o s K s K 1 K., ].I d (X*X*X*X*X*"
};
