/* XPM */
static const char *TrueCryptIcon16x16[] = {
/* columns rows colors chars-per-pixel */
"16 16 231 2",
"   c black",
".  c #020304",
"X  c #050608",
"o  c #060710",
"O  c #070913",
"+  c #0A0B12",
"@  c #0D0F17",
"#  c #0A0B19",
"$  c #0C0E1F",
"%  c #101118",
"&  c #121319",
"*  c #11141E",
"=  c #14151A",
"-  c #191A1D",
";  c #1C1C1E",
":  c #1C1D1E",
">  c #1E1E1E",
",  c #0C0F20",
"<  c #101326",
"1  c #121522",
"2  c #121527",
"3  c #101328",
"4  c #101329",
"5  c #10132A",
"6  c #10132B",
"7  c #10142B",
"8  c #121528",
"9  c #121529",
"0  c #11142C",
"q  c #11152D",
"w  c #161929",
"e  c #16192B",
"r  c #171A2A",
"t  c #191B2B",
"y  c #1B1D2C",
"u  c #1C1E2C",
"i  c #21232E",
"p  c #2D2D2D",
"a  c #2A2B30",
"s  c #272D5C",
"d  c #2A3267",
"f  c #2C3468",
"g  c #2E3778",
"h  c #303970",
"j  c #384176",
"k  c #3C4270",
"l  c #3C417A",
"z  c #434B7E",
"x  c #353F88",
"c  c #384283",
"v  c #3D4489",
"b  c #3E458B",
"n  c #374290",
"m  c #3A4591",
"M  c #3A4597",
"N  c #3D479B",
"B  c #3E489B",
"V  c #3C489C",
"C  c #3C489E",
"Z  c #3D499F",
"A  c #3E4AA0",
"S  c #3E4AA2",
"D  c #3F4BA5",
"F  c #424B99",
"G  c #404C9A",
"H  c #404D9E",
"J  c #464F9B",
"K  c #4B528C",
"L  c #455299",
"P  c #4B579B",
"I  c #48549D",
"U  c #454FA0",
"Y  c #454FA1",
"T  c #454FA3",
"R  c #4350AE",
"E  c #4D56A1",
"W  c #4956AE",
"Q  c #4C59A6",
"!  c #4F5CA1",
"~  c #4D5BAD",
"^  c #4452B3",
"/  c #4755B8",
"(  c #4A58B0",
")  c #4F5DB1",
"_  c #4A58BB",
"`  c #4F5DB8",
"'  c #535DAB",
"]  c #535FAB",
"[  c #5660A8",
"{  c #5967AA",
"}  c #5C68AB",
"|  c #5361B2",
" . c #5561B1",
".. c #5561BB",
"X. c #5765BC",
"o. c #5A69BB",
"O. c #6973A4",
"+. c #6974AB",
"@. c #6572BB",
"#. c #6674BE",
"$. c #6A76BA",
"%. c #6B78BD",
"&. c #6B78BE",
"*. c #707AA7",
"=. c #727DAC",
"-. c #727EBA",
";. c #717EBE",
":. c #5562C0",
">. c #5664C0",
",. c #5D6BC8",
"<. c #5C6BCA",
"1. c #616FC4",
"2. c #616DC9",
"3. c #606DCA",
"4. c #606DCE",
"5. c #626FCF",
"6. c #6370C4",
"7. c #6371C7",
"8. c #6774C2",
"9. c #6373C9",
"0. c #6976CA",
"q. c #6F7ECC",
"w. c #6977D2",
"e. c #6B76D0",
"r. c #6B79D4",
"t. c #6F7ED1",
"y. c #707DCB",
"u. c #707CD4",
"i. c #727FD5",
"p. c #7681AE",
"a. c #7985BC",
"s. c #7E8ABF",
"d. c #7785C1",
"f. c #7784CE",
"g. c #7885CE",
"h. c #7D8AC0",
"j. c #7883D3",
"k. c #7B84D4",
"l. c #7C87D8",
"z. c #7C8AD7",
"x. c #7B88D9",
"c. c #7B89D9",
"v. c #7C88D9",
"b. c #7E89D8",
"n. c #8992BB",
"m. c #818BC0",
"M. c #808EDC",
"N. c #8C96C2",
"B. c #8994C8",
"V. c #8A95CB",
"C. c #8F99C3",
"Z. c #8491D8",
"A. c #8591DC",
"S. c #8B97D6",
"D. c #8895DF",
"F. c #8996DD",
"G. c #8B97DE",
"H. c #8E99D3",
"J. c #8D99D9",
"K. c #8C98DF",
"L. c #8E9BDC",
"P. c #939FE2",
"I. c #99A4D7",
"U. c #99A5DC",
"Y. c #9DA7DB",
"T. c #9CA7DC",
"R. c #9AA5E0",
"E. c #98A4E4",
"W. c #9BA6E5",
"Q. c #9DA7E1",
"!. c #9DA9E1",
"~. c #9FAAE3",
"^. c #9FAAE6",
"/. c #97BCEC",
"(. c #A2AACD",
"). c #A3ACCF",
"_. c #A4ACD1",
"`. c #A6B0DE",
"'. c #AAB3DB",
"]. c #AFB8DB",
"[. c #B7BFDC",
"{. c #A0AAE3",
"}. c #A2ABE4",
"|. c #A4AEE6",
" X c #A4AFE8",
".X c #A9B2E7",
"XX c #AAB4E8",
"oX c #ABB5E9",
"OX c #B0BAE3",
"+X c #B0B9EB",
"@X c #B1BBEB",
"#X c #B2BBE8",
"$X c #B2BBEA",
"%X c #B6BCE9",
"&X c #B6BDE9",
"*X c #B6BFEB",
"=X c #B6BFEE",
"-X c #BAC1DE",
";X c #B7C1ED",
":X c #B9C2E5",
">X c #BDC5E2",
",X c #BCC4E4",
"<X c #B8C0EC",
"1X c #B9C1ED",
"2X c #B9C3EF",
"3X c #BCC2EB",
"4X c #BEC3EB",
"5X c #BCC5EE",
"6X c #BEC6EF",
"7X c #C3CAEE",
"8X c #C8CFEA",
"9X c #C5CDF2",
"0X c #CFD1E6",
"qX c #CBD4F5",
"wX c #CDD2F0",
"eX c #D3D7F3",
"rX c #D5DDF3",
"tX c #D5DCF7",
"yX c #D6DDF4",
"uX c #DBDFF5",
"iX c #D9E1F6",
"pX c #DFE6FB",
"aX c #E4E7F8",
"sX c #E4E9F9",
"dX c #E7EAF8",
"fX c #E9EEFB",
"gX c #F0F2FB",
"hX c #F6F7FE",
"jX c #F9FAFF",
"kX c #FBFBFE",
"lX c #FDFDFE",
/* pixels */
". * r 1 u t r t < +           O ",
"@ +.D.&.XXK.c.4X,.*Xl.W i.:.S 7 ",
"% s.T.d.&.%.} o.I ) G ..4._ S < ",
"% *XgX#XE.E.&.b.P l.0.4XkX2./ q ",
"= OX2XI.B.a.O.#.{ X.) ,.l.^ R q ",
"> 8X9X'.<X<X}. Xu.sXwX` i.C n < ",
"> sXtX:X6X+X}.uXz.*X}.[ e.Y C 0 ",
"> hXiX>X0XT.J./.y.1.] K J J Y 0 ",
"> jXpX,X;XoX1XkXU.A.j.' k.v T < ",
": fXrX-X(.C.H.F.#.! z k l b F 0 ",
"- rXqX].@XQ.{.7Xf.l.7.P 5.v C < ",
"> -X1X_.U.H.K.aX8.7.Q c :.m Z < ",
"> _.`.n.V.h.Z.oX9.] J h W M D < ",
"p N. Xs.E.$XeXkXQ.r.<.U r.x Z 0 ",
"p p.p.*.-.g.y.K.| j f s d g M < ",
"        X i t a < r < , 0 # , o "
};
