/* XPM */
static const char *VeraCryptIcon16x16[] = {
"16 16 86 1",
" 	c None",
".	c #FFFFFF",
"+	c #FDFEFF",
"@	c #FDFEFE",
"#	c #FEFEFE",
"$	c #FEFFFE",
"%	c #FEFFFF",
"&	c #FEFEFF",
"*	c #FCFEFE",
"=	c #60C9E6",
"-	c #6FCDE7",
";	c #C4E7DC",
">	c #8ACCB7",
",	c #A0D4C2",
"'	c #BFE1D4",
")	c #FCFEFD",
"!	c #8CD6EC",
"~	c #0096CC",
"{	c #B8E2F1",
"]	c #F1F9F7",
"^	c #51BA9C",
"/	c #68C0A5",
"(	c #9FD3C0",
"_	c #CFE9E0",
":	c #3FA8D7",
"<	c #399CD3",
"[	c #F9FCFD",
"}	c #87D4C1",
"|	c #38B495",
"1	c #E2F4EF",
"2	c #C5E0F1",
"3	c #0C79C1",
"4	c #A0C7E5",
"5	c #E6F8F6",
"6	c #1A7C68",
"7	c #479A80",
"8	c #FBFFFF",
"9	c #FCFDFD",
"0	c #66A1D1",
"a	c #2B74BA",
"b	c #5AB3C3",
"c	c #288F93",
"d	c #248C6C",
"e	c #89C6B6",
"f	c #C5E2DB",
"g	c #E4F3EF",
"h	c #E1E9F6",
"i	c #24679C",
"j	c #026B83",
"k	c #BAE2ED",
"l	c #7CB8A3",
"m	c #0E7A59",
"n	c #159271",
"o	c #60C2AC",
"p	c #EEEEEE",
"q	c #E6E6E6",
"r	c #FFFEFF",
"s	c #DCE9EC",
"t	c #CEDFE3",
"u	c #EEECEC",
"v	c #F0F7F4",
"w	c #D6E9E3",
"x	c #D5EBE5",
"y	c #CEEAE4",
"z	c #FAFDFD",
"A	c #CBCBCA",
"B	c #777775",
"C	c #8E8E8E",
"D	c #A29F9E",
"E	c #959190",
"F	c #D0D1D0",
"G	c #C6C5C5",
"H	c #BFBCBC",
"I	c #B1ADAD",
"J	c #DCD9D9",
"K	c #F6F6F6",
"L	c #DFDFDE",
"M	c #DEDEDE",
"N	c #DFDFDF",
"O	c #D9DADA",
"P	c #EDEDED",
"Q	c #E5E6E5",
"R	c #CECFCE",
"S	c #DEDFDE",
"T	c #F4F5F5",
"U	c #FDFDFD",
"                ",
"    ........    ",
"   ++....@@#$   ",
"   %.&..%%...   ",
"  *=-.%@.;>,')  ",
"  .!~{..]^/(_.  ",
" %..:<[.}|1.@.. ",
"..@.2345678.@...",
"...9.0abcdefg.$.",
" ..@.hijklmno.$ ",
"  .pqrstuvwxyz  ",
"  .ABCDEFGHIJ.  ",
"   KLMNOPQRST   ",
"   ##....#...   ",
"    UUUU####    ",
"                "};
