/* XPM */
static const char *VeraCryptIcon16x16[] = {
/* columns rows colors chars-per-pixel */
"16 16 123 2",
"  	c None",
". 	c #ABADA9",
"+ 	c #B6B7B2",
"@ 	c #B4B6B2",
"# 	c #B6B6B3",
"$ 	c #B7B8B4",
"% 	c #B7B7B4",
"& 	c #B5B7B3",
"* 	c #B5B6B2",
"= 	c #B5B5B2",
"- 	c #ABADA8",
"; 	c #C1C3BF",
"> 	c #CBCCC7",
", 	c #C4C5C1",
"' 	c #CCCEC9",
") 	c #CECFCA",
"! 	c #CDCFC9",
"~ 	c #CCCDC8",
"{ 	c #CED0CB",
"] 	c #C0C2BE",
"^ 	c #B1B3AE",
"/ 	c #CBCDC7",
"( 	c #B5B6B1",
"_ 	c #CCCDC9",
": 	c #D0D2CC",
"< 	c #CDCFCA",
"[ 	c #D1D3CE",
"} 	c #D9DAD6",
"| 	c #B7B9B4",
"1 	c #BEBFBB",
"2 	c #CCCECA",
"3 	c #D3D4D0",
"4 	c #D6D8D4",
"5 	c #DFE0DD",
"6 	c #E0E1DE",
"7 	c #D8D9D6",
"8 	c #D4D5D1",
"9 	c #D7D9D4",
"0 	c #D9DAD7",
"a 	c #C2C3C0",
"b 	c #D1D2CF",
"c 	c #E4E5E2",
"d 	c #DEDFDA",
"e 	c #DCDDD9",
"f 	c #DEDFDC",
"g 	c #D8D9D7",
"h 	c #D9DBD7",
"i 	c #E1E2DE",
"j 	c #D7D8D4",
"k 	c #C1C2BE",
"l 	c #BDBEB9",
"m 	c #C7C8C5",
"n 	c #D5D5D2",
"o 	c #E4E6E3",
"p 	c #EBEBE9",
"q 	c #E8E8E5",
"r 	c #E3E4E1",
"s 	c #E2E3E0",
"t 	c #E2E2DF",
"u 	c #DEDEDB",
"v 	c #ACAFA8",
"w 	c #B1B4AD",
"x 	c #A8ABA4",
"y 	c #C6C8C3",
"z 	c #C9CAC7",
"A 	c #D2D4D1",
"B 	c #D5D7D3",
"C 	c #DDDED9",
"D 	c #EBECEA",
"E 	c #EFEFEE",
"F 	c #F5F5F4",
"G 	c #CBCCCA",
"H 	c #B1B3AC",
"I 	c #C7C7C1",
"J 	c #BBBDB6",
"K 	c #A9ACA6",
"L 	c #C2C4C2",
"M 	c #D3D5D0",
"N 	c #CECFCC",
"O 	c #D6D7D3",
"P 	c #D7D8D5",
"Q 	c #DADBD8",
"R 	c #DEDFDF",
"S 	c #CCC9B8",
"T 	c #B0A980",
"U 	c #B3B2A3",
"V 	c #CFC17D",
"W 	c #C3BE9C",
"X 	c #B4B2A1",
"Y 	c #A19A74",
"Z 	c #444849",
"` 	c #5F6362",
" .	c #606463",
"..	c #616563",
"+.	c #676B69",
"@.	c #656968",
"#.	c #636768",
"$.	c #6A675A",
"%.	c #D6CB80",
"&.	c #F9F198",
"*.	c #F3E879",
"=.	c #D3C653",
"-.	c #D2C54F",
";.	c #59532E",
">.	c #2A3032",
",.	c #2B3133",
"'.	c #2E3334",
").	c #333838",
"!.	c #383D3E",
"~.	c #353A3A",
"{.	c #32383B",
"].	c #3C3C34",
"^.	c #D0C264",
"/.	c #FFF877",
"(.	c #DDCC2E",
"_.	c #BEAB04",
":.	c #C7B50E",
"<.	c #514922",
"[.	c #D4C661",
"}.	c #FCF28A",
"|.	c #E2D352",
"1.	c #C8B82D",
"2.	c #C9B828",
"                                ",
"                                ",
"                                ",
"      . + @ # $ % & * = -       ",
"      ; > , ' ) ! ~ { ' ]       ",
"    ^ / ( _ : { { ' < [ } |     ",
"    1 2 3 4 } 5 6 7 8 9 0 a     ",
"    b c d e f g h i j k l m     ",
"    n o p q r s t u v w x y     ",
"  z A B C t D E F G H I J K L   ",
"  a M N O P Q R S T U V W X Y   ",
"  Z `  ...+.@.#.$.%.&.*.=.-.;.  ",
"  >.,.'.).!.~.{.].^./.(._.:.<.  ",
"                  [.}.|.1.2.    ",
"                                ",
"                                "};
